<?xml version="1.0"?>
<svg xmlns="http://www.w3.org/2000/svg" id="OutLine" viewBox="0 0 512 512" width="512" height="512"><path d="M493.381,98.08l-88-80A8,8,0,0,0,400,16H320a8,8,0,0,0-8,8c0,4.644-19.624,16-56,16s-56-11.356-56-16a8,8,0,0,0-8-8H112a8,8,0,0,0-5.381,2.08l-88,80a8,8,0,0,0-1.173,10.508l56,80a8,8,0,0,0,11.676,1.558L112,167.747c0,.119,0,.233,0,.344.174,15.338,5.83,38.377,11.817,62.768S136,280.485,136,296c0,12.144-6.766,36.038-14.6,63.7C110.083,399.666,96,449.4,96,488a8,8,0,0,0,8,8H408a8,8,0,0,0,8-8c0-38.6-14.083-88.336-25.4-128.3C382.766,332.036,376,308.144,376,296c0-15.516,6.193-40.744,12.182-65.143S399.825,183.429,400,168.091c0-.111,0-.225,0-.344l26.878,22.4a8,8,0,0,0,11.676-1.558l56-80A8,8,0,0,0,493.381,98.08ZM256,56c18.569,0,37.245-2.968,50.927-8.753a55.969,55.969,0,0,1-101.854,0C218.755,53.032,237.431,56,256,56ZM430.437,172.283,393.5,141.5a8,8,0,0,0-12.893,8.046c3.109,12.711,3.41,17.076,3.4,18.363-.153,13.5-5.849,36.7-11.356,59.134C366.427,252.365,360,278.55,360,296c0,14.365,6.71,38.062,15.206,68.061,10.254,36.214,22.837,80.65,24.588,115.939H112.206c1.751-35.288,14.333-79.723,24.588-115.937,8.5-30,15.206-53.7,15.206-68.063,0-17.45-6.427-43.634-12.643-68.955-5.508-22.438-11.2-45.641-11.357-59.136-.014-1.287.287-5.653,3.4-18.362A8,8,0,0,0,118.5,141.5L81.563,172.283l-46.97-67.1L115.093,32h69.348a72.005,72.005,0,0,0,143.118,0h69.348l80.5,73.182Z"/></svg>
