<?xml version="1.0" encoding="utf-8"?>
<!-- Generator: Adobe Illustrator 16.0.0, SVG Export Plug-In . SVG Version: 6.00 Build 0)  -->
<!DOCTYPE svg PUBLIC "-//W3C//DTD SVG 1.1//EN" "http://www.w3.org/Graphics/SVG/1.1/DTD/svg11.dtd">
<svg version="1.1" id="Layer_1" xmlns="http://www.w3.org/2000/svg" xmlns:xlink="http://www.w3.org/1999/xlink" x="0px" y="0px"
	 width="360px" height="78.701px" viewBox="0 141.236 360 78.701" enable-background="new 0 141.236 360 78.701"
	 xml:space="preserve">
<path fill="#31C5EE" d="M83.068,162.896c-5.529-2.901-12.076-3.138-17.799-0.644c-5.072,2.118-9.104,6.15-11.223,11.223
	c-1.134,2.566-1.719,5.342-1.715,8.149c-0.027,3.711,0.935,7.363,2.788,10.579c1.825,3.183,4.465,5.823,7.648,7.648
	c3.216,1.853,6.868,2.814,10.579,2.787c2.908,0.03,5.788-0.58,8.435-1.786c2.626-1.15,4.987-2.828,6.934-4.933l0.572-0.644
	l-3.431-3.216l-0.572,0.643c-3.069,3.331-7.408,5.203-11.938,5.147c-4.088,0.06-8.038-1.479-11.008-4.289
	c-2.807-2.465-4.613-5.873-5.076-9.578h13.438c1.611-0.007,3.208-0.298,4.718-0.857c1.652-0.596,3.215-1.414,4.646-2.432
	c1.501-1,2.716-2.001,3.789-2.788c1.25-0.979,2.443-2.029,3.574-3.145c1.286-1.215,2.144-2.001,2.573-2.358l1.573-1.43l-1.144-1.787
	C88.464,166.578,85.952,164.431,83.068,162.896z M70.845,179.194h-13.51c1.247-7.964,8.094-13.842,16.155-13.868
	c2.346-0.005,4.665,0.507,6.791,1.501c1.838,0.867,3.508,2.053,4.932,3.503c-0.286,0.286-0.715,0.643-1.358,1.215
	c-1.215,1.072-2.073,1.858-2.501,2.216c-0.429,0.357-1.287,1-2.431,1.93c-0.877,0.694-1.81,1.316-2.788,1.858
	c-0.835,0.409-1.695,0.767-2.573,1.072C72.702,178.988,71.779,179.182,70.845,179.194z"/>
<path fill="#31C5EE" d="M114.306,198.422l-16.87-37.956l-4.289,1.858l18.514,41.674l-2.574,5.146
	c-1.93,3.86-4.074,5.861-6.433,5.861c-1.111-0.028-2.185-0.403-3.074-1.071c-1.057-0.712-1.976-1.607-2.716-2.645l-0.5-0.716
	l-4.003,2.574l0.5,0.786c1.12,1.621,2.524,3.025,4.146,4.146c1.642,1.194,3.616,1.845,5.646,1.858c4.503,0,8.149-2.858,10.865-8.435
	l23.518-48.893l-4.36-2.144L114.306,198.422z"/>
<path fill="#31C5EE" d="M144.971,143.31h-4.789v54.468c-0.053,2.159,1.654,3.952,3.813,4.007c0.087,0.002,0.175,0.001,0.262-0.003
	h0.858v-4.789h-0.143V143.31z"/>
<path fill="#31C5EE" d="M171.348,160.537c-5.453-0.05-10.672,2.209-14.368,6.219c-3.889,3.962-6.026,9.317-5.934,14.868
	c-0.016,3.679,0.919,7.298,2.716,10.508c1.738,3.153,4.278,5.792,7.363,7.648c6.308,3.717,14.136,3.717,20.442,0
	c3.085-1.856,5.625-4.495,7.363-7.648c1.797-3.21,2.732-6.829,2.716-10.508c0.094-5.551-2.045-10.906-5.933-14.868
	C182,162.771,176.794,160.517,171.348,160.537z M160.411,170.115c5.575-6.04,14.99-6.417,21.029-0.843
	c0.292,0.27,0.573,0.551,0.844,0.843c2.982,3.083,4.626,7.22,4.574,11.509c0.05,4.269-1.595,8.382-4.574,11.438
	c-2.794,3.075-6.78,4.796-10.936,4.717c-4.148,0.046-8.123-1.669-10.937-4.717c-2.98-3.056-4.625-7.169-4.575-11.438
	C155.797,177.337,157.439,173.206,160.411,170.115z"/>
<path fill="#31C5EE" d="M231.248,164.397c-2.86-2.573-6.648-3.86-11.366-3.86c-3.9-0.008-7.713,1.163-10.937,3.36
	c-2.528,1.705-4.671,3.921-6.29,6.505l-0.287-9.15h-4.359v40.531h4.789v-18.014c-0.015-3.262,0.771-6.477,2.288-9.364
	c1.444-2.749,3.59-5.066,6.218-6.719c2.54-1.619,5.495-2.463,8.507-2.43c3.432,0,6.146,0.858,8.077,2.502
	c1.93,1.644,2.859,4.002,2.859,7.076v26.877h4.789v-26.948C235.536,170.544,234.107,166.971,231.248,164.397z"/>
<path d="M262.771,170.473h-18.157v-20.3h23.731c1.579,0,2.86-1.28,2.86-2.859s-1.281-2.859-2.86-2.859h-26.877
	c-0.802-0.022-1.579,0.288-2.145,0.858c-0.558,0.573-0.866,1.344-0.857,2.145v51.252c-0.022,0.802,0.288,1.578,0.857,2.145
	c0.573,0.559,1.345,0.867,2.145,0.857c0.822,0.01,1.616-0.298,2.216-0.857c0.592-0.586,0.926-1.383,0.93-2.216v-22.66h18.157
	c1.577-0.022,2.84-1.32,2.817-2.899c-0.01-0.735-0.303-1.437-0.816-1.962C264.182,170.713,263.486,170.489,262.771,170.473z"/>
<path d="M284.429,161.681c-5.575,0-10.008,1.716-13.151,5.075c-3.146,3.359-4.646,8.506-4.646,15.225
	c0,6.721,1.573,11.866,4.717,15.297c3.146,3.432,7.506,5.148,13.081,5.148c5.576,0,10.079-1.717,13.152-5.148
	c3.074-3.431,4.647-8.576,4.647-15.297c0-6.718-1.573-11.865-4.647-15.225C294.508,163.396,290.076,161.681,284.429,161.681z
	 M284.429,196.993c-8.006,0-11.865-4.933-11.865-15.084c0-10.15,3.859-14.938,11.865-14.938c8.007,0,11.866,4.86,11.866,14.938
	C296.295,191.988,292.436,196.993,284.429,196.993z"/>
<path d="M317.811,196.421c-2.072,0-3.073-1.501-3.073-4.504v-47.749c0-1.619-1.313-2.931-2.931-2.931l0,0
	c-0.776,0.006-1.52,0.314-2.072,0.858c-0.558,0.546-0.867,1.294-0.858,2.073v47.749c0,3.288,0.786,5.79,2.288,7.435
	c1.501,1.645,3.788,2.573,6.646,2.573c0.722,0,1.414-0.282,1.931-0.787c0.551-0.488,0.863-1.192,0.857-1.93
	c0.021-0.739-0.294-1.449-0.857-1.931C319.243,196.739,318.545,196.429,317.811,196.421z"/>
<path d="M356.411,197.136l-14.726-18.943l13.511-10.793c0.768-0.572,1.218-1.473,1.215-2.431c-0.037-1.654-1.409-2.964-3.062-2.927
	c-0.688,0.016-1.348,0.267-1.871,0.711l-19.372,15.869v-34.454c0.002-1.619-1.31-2.932-2.929-2.932
	c-0.778-0.001-1.523,0.308-2.074,0.858c-0.556,0.546-0.866,1.294-0.857,2.073v54.826c-0.022,0.781,0.29,1.535,0.857,2.072
	c0.546,0.557,1.294,0.866,2.072,0.858c1.62,0,2.931-1.313,2.931-2.931v-13.366l4.79-3.86l14.653,18.799
	c0.593,0.79,1.515,1.265,2.502,1.286c1.618,0,2.931-1.311,2.931-2.93C357.048,198.272,356.841,197.626,356.411,197.136z"/>
<path fill="#31C5EE" d="M23.381,201.138c2.053,0.878,4.273,1.294,6.505,1.216l1.43-0.215h0.071c1.071-0.213,2.076-0.679,2.931-1.357
	c1.567-1.036,2.444-2.846,2.287-4.718c-0.429-3.932-5.29-6.291-8.363-4.075c-0.542,0.463-0.919,1.091-1.072,1.787
	c-0.233,1.587,0.655,3.125,2.145,3.718c1.644,0.643,3.288-0.216,3.502-1.717c0.429,0.787,0.143,1.573-0.786,2.288
	c-1.67,1.354-4.084,1.263-5.647-0.214c-0.571-0.869-1.328-1.603-2.216-2.146c-1.144,1.502-2.287,3.003-3.502,4.504
	C21.547,200.584,22.455,200.894,23.381,201.138z"/>
<path fill="#31C5EE" d="M52.903,159.179c-0.128-1.047-0.367-2.078-0.715-3.073l0,0c-0.353-1.191-0.832-2.342-1.429-3.431
	l-0.93-2.359c-2.001-2.359-5.361-4.217-8.649-5.433c-3.25-1.198-6.688-1.804-10.15-1.787c-3.912-0.02-7.785,0.784-11.365,2.358
	c-3.459,1.461-6.576,3.628-9.149,6.362c-2.568,2.747-4.604,5.946-6.005,9.435c-1.488,3.629-2.241,7.516-2.216,11.438
	c-0.06,5.17,1.221,10.268,3.717,14.796c2.429,4.44,6.01,8.145,10.365,10.722c0.286,0.144,0.5,0.287,0.786,0.43
	c1.366-2.094,2.606-4.266,3.718-6.505c-0.072-0.571-0.144-1.071-0.215-1.358c-1-3.36-0.715-6.576,1.644-9.221
	c1.144-1.287,2.645-2.145,4.003-3.217c0.324-0.266,0.685-0.482,1.072-0.643c1.93-0.858,3.789-0.572,5.79,0.429
	c-0.093-0.377-0.165-0.759-0.215-1.144c-0.143-2.073-0.286-4.146-0.357-6.219c-0.016-0.902,0.446-1.745,1.215-2.216
	c-0.536,0.88-0.666,1.948-0.357,2.931c0.353,1.521,0.782,3.024,1.287,4.503c0.572,1.572,1.43,2.931,1.43,4.717
	c0.027,0.979,0.697,1.823,1.644,2.073c1.644,0.715,3.145,0.286,4.575-0.644c2.474-1.604,4.571-3.726,6.147-6.219
	C51.759,170.759,53.833,165.398,52.903,159.179z M22.452,167.614v0.286c-0.786,0.072-1.572,0.143-2.359,0.143v-0.286
	C20.88,167.685,21.666,167.614,22.452,167.614z M19.95,169.758c-0.071-0.286,0.429-0.857,0.786-1c0.606-0.17,1.23-0.266,1.859-0.286
	c-0.01,0.078,0.017,0.157,0.071,0.214c-0.429,0.143-0.786,0.214-1.215,0.357c-0.429,0.144-1,0.286-0.858,1.001
	c0.143,0.714,0.644,0.714,1.215,0.643c0.072,0,0.215-0.072,0.286-0.072c-0.01,0.101,0.015,0.202,0.072,0.286
	c-0.429,0.072-1,0.287-1.358,0.144C20.397,170.714,20.098,170.265,19.95,169.758z M20.88,171.617
	c0.643-0.214,1.358-0.429,1.93-0.644C22.381,172.045,21.594,172.26,20.88,171.617z"/>
<path fill="#31C5EE" d="M30.601,177.835c-1.214-0.16-2.447,0.092-3.502,0.715c-0.286,0.214-0.715,0.572-0.786,0.857
	c-0.846,3.395-2.019,6.698-3.503,9.865c-3.002,6.862-6.862,13.01-12.294,18.013c-1.001,0.93-2.002,1.931-3.003,2.86
	c0,0.071,0.072,0.071,0.072,0.144c0.197-0.081,0.389-0.178,0.572-0.287c3.971-2.078,7.513-4.893,10.436-8.292
	c3.717-4.433,7.434-9.007,10.079-14.297c1.159-2.42,2.185-4.901,3.074-7.433c0.396-0.683,0.164-1.558-0.519-1.954
	C31.035,177.915,30.821,177.85,30.601,177.835z"/>
</svg>
